<svg width="326" height="246" viewBox="0 0 326 246" fill="none" xmlns="http://www.w3.org/2000/svg">
<g opacity="0.5">
<path d="M159.935 236.095L19.3479 152.906C14.8735 150.392 11.0349 146.255 15.3951 143.555L156.48 62.136C158.599 60.8223 161.81 59.9655 163.961 61.214L311.558 146.965C316.032 149.568 316.839 156.839 312.373 159.442L178.485 235.964C175.671 237.6 172.481 238.472 169.227 238.495C165.974 238.518 162.771 237.691 159.935 236.095Z" fill="#4444A5"/>
<path d="M149.145 172.824C134.475 181.228 119.805 189.739 105.135 198.184C120.978 207.862 142.388 220.681 145.836 222.55L190.05 196.83L149.145 172.824Z" fill="url(#paint0_linear_1_2449)"/>
<path d="M222.43 178.821L261.436 156.137L211.941 127.08L171.574 147.953C175.812 151.029 217.777 176.316 222.43 178.821Z" fill="url(#paint1_linear_1_2449)"/>
<path d="M213.139 6.49433C223.888 13.2343 250.93 28.893 260.148 34.5559C262.234 35.837 262.593 37.7464 262.593 40.2025V154.774C262.024 155.435 261.239 155.87 260.378 156.002C259.517 156.133 258.638 155.953 257.898 155.492L212.527 129.822C210.27 128.492 208.493 127.121 208.493 124.501L208.884 8.57508C208.86 6.0537 211.011 5.15612 213.139 6.49433Z" fill="#080163"/>
<path d="M208.95 7.75091L223.702 16.2779V19.4684C223.703 19.7365 223.774 19.9997 223.909 20.2317C224.043 20.4636 224.236 20.6562 224.468 20.7903L235.878 27.3916C236.031 27.4802 236.205 27.527 236.382 27.5271C236.559 27.5273 236.733 27.4808 236.887 27.3924C237.04 27.3039 237.168 27.1766 237.257 27.0233C237.346 26.8699 237.393 26.6958 237.394 26.5185V24.1929L258.828 36.7753C259.032 36.896 259.201 37.0679 259.318 37.274C259.435 37.4801 259.497 37.7132 259.496 37.9503V152.514C259.5 152.678 259.46 152.84 259.38 152.983C259.3 153.126 259.184 153.246 259.043 153.329C258.901 153.412 258.741 153.456 258.577 153.456C258.413 153.456 258.252 153.413 258.111 153.33L208.469 124.518C208.381 125.408 208.538 126.305 208.923 127.112C209.308 127.919 209.906 128.605 210.653 129.095C213.229 130.727 258.445 156.357 258.445 156.357C258.445 156.357 262.023 157.989 263.066 153.705V38.4236C263.068 37.6776 262.893 36.9417 262.556 36.2765C262.219 35.6112 261.729 35.0355 261.126 34.5967C259.056 33.0953 212.935 6.24951 212.935 6.24951C212.935 6.24951 209.684 4.73994 208.95 7.75091Z" fill="#124577"/>
<path d="M200.539 31.3491V41.8344C200.639 42.6646 200.991 43.4441 201.548 44.0673C202.105 44.6904 202.839 45.1273 203.652 45.3186C206.489 45.9633 206.912 42.2261 206.912 42.2261V34.4824L200.539 31.3491Z" fill="#C13D3D"/>
<path d="M206.708 35.5187L207.01 46.559C207.109 47.3891 207.461 48.1686 208.018 48.7918C208.575 49.415 209.31 49.8518 210.123 50.0432C212.959 50.6878 213.383 46.9506 213.383 46.9506V39.207L206.708 35.5187Z" fill="#FFC700"/>
<path d="M213.31 39.2723V49.7576C213.409 50.5878 213.761 51.3673 214.318 51.9905C214.875 52.6137 215.61 53.0505 216.423 53.2419C219.259 53.8865 219.683 50.1493 219.683 50.1493V42.4056L213.31 39.2723Z" fill="#C13D3D"/>
<path d="M219.643 43.0911V53.5764C219.742 54.4066 220.095 55.1861 220.651 55.8093C221.208 56.4325 221.943 56.8693 222.756 57.0607C225.592 57.7053 226.016 53.9681 226.016 53.9681V46.2244L219.643 43.0911Z" fill="#FFC700"/>
<path d="M225.983 46.2979V56.775C226.083 57.6052 226.435 58.3847 226.992 59.0079C227.549 59.6311 228.284 60.0679 229.097 60.2593C231.933 60.9039 232.357 57.1667 232.357 57.1667V49.4231L225.983 46.2979Z" fill="#C13D3D"/>
<path d="M232.21 50.5736V61.059C232.31 61.8891 232.662 62.6686 233.219 63.2918C233.776 63.915 234.51 64.3518 235.323 64.5432C238.159 65.1878 238.583 61.4506 238.583 61.4506V53.707L232.21 50.5736Z" fill="#FFC700"/>
<path d="M232.21 51.1121L247.263 29.8721L253.066 33.4216L238.551 54.8574" fill="#FFC700"/>
<path d="M225.983 47.3912L240.751 26.1594L247.263 29.8721L232.21 51.1121" fill="#E04F4F"/>
<path d="M219.643 43.6541L234.989 22.6099L240.751 26.1594L225.983 47.4402" fill="#FFC700"/>
<path d="M213.31 39.7945L228.208 18.7911L234.989 22.6099L219.642 43.6051" fill="#E04F4F"/>
<path d="M206.88 35.837L221.134 14.8336L228.208 18.7911L213.31 39.7945" fill="#FFC700"/>
<path d="M200.539 31.9937L214.704 11.072L221.134 14.8336L206.88 35.837" fill="#E04F4F"/>
<path d="M194.206 28.2891L208.949 7.75092L214.703 11.072L200.539 31.9937" fill="#FFC700"/>
<path d="M258.827 36.7753C258.827 36.7753 259.496 36.914 259.496 38.0646V58.2764L243.049 67.6928L245.315 53.2826L258.827 36.7753Z" fill="#AA2B2B"/>
<path d="M238.551 54.8575V64.2494C238.651 65.0796 239.003 65.8591 239.56 66.4823C240.116 67.1055 240.851 67.5423 241.664 67.7337C244.5 68.3783 244.924 64.6411 244.924 64.6411L244.802 58.456L238.551 54.8575Z" fill="#C13D3D"/>
<path d="M244.761 58.4641L258.828 36.7754L253.066 33.4217L238.551 54.8575" fill="#E04F4F"/>
<path d="M194.206 28.2892V39.3049C194.306 40.1351 194.658 40.9146 195.215 41.5378C195.772 42.161 196.506 42.5978 197.319 42.7892C200.156 43.4338 200.579 39.6966 200.579 39.6966V31.9529L194.206 28.2892Z" fill="#FFC700"/>
<path d="M236.195 137.582C237.32 137.582 238.232 133.121 238.232 127.618C238.232 122.116 237.32 117.655 236.195 117.655C235.069 117.655 234.157 122.116 234.157 127.618C234.157 133.121 235.069 137.582 236.195 137.582Z" fill="#46BBCE"/>
<path d="M204.736 126.811C204.736 126.811 205.168 154.219 206.203 154.668C207.238 155.117 209.895 155.076 210.865 153.762C211.835 152.449 213.09 140.593 212.87 137.296C212.65 133.999 211.362 126.598 211.362 126.598" fill="#FFB288"/>
<path d="M204.361 155.533C204.985 154.559 205.404 153.468 205.592 152.326C207.752 152.865 209.439 153.191 211.297 152.082C211.655 153.64 212.927 155.59 212.813 156.79C212.666 158.683 211.06 158.071 209.455 158.56C208.322 158.903 207.523 160.07 206.831 161.147C205.75 162.31 204.326 163.096 202.767 163.39C201.208 163.683 199.596 163.469 198.167 162.779C197.969 162.324 197.848 161.838 197.809 161.343C197.548 159.164 203.204 157.198 204.361 155.533Z" fill="#29333F"/>
<path d="M218.941 105.155C218.952 103.107 219.096 101.063 219.373 99.0347L215.298 98.2187C206.431 102.193 204.703 126.778 204.703 126.778C204.703 126.778 210.905 130.042 212.649 129.593C214.067 129.226 217.67 118.316 218.957 114.253C218.9 111.242 218.852 108.198 218.941 105.155Z" fill="#FFC700"/>
<path d="M204.736 126.811L204.345 150.082C204.345 150.082 210.726 151.176 212.038 150.539C213.35 149.903 214.043 127.692 214.043 127.692L204.736 126.811Z" fill="#FFC700"/>
<path d="M217.035 120.185L215.576 106.55L214.044 127.733L217.035 120.185Z" fill="#B5641C"/>
<path opacity="0.32" d="M39.8372 158.968L73.8064 139.679L59.0142 132.996L25.8926 151.47C30.155 154.538 35.1754 156.455 39.8372 158.968Z" fill="url(#paint2_linear_1_2449)"/>
<path d="M58.0197 122.404C58.0197 122.404 55.045 142.739 67.7997 142.804C80.1225 142.869 76.9522 122.184 76.9522 122.184C76.9522 122.184 68.0198 114.375 58.0197 122.404Z" fill="#080163"/>
<path opacity="0.15" d="M58.0197 122.404C58.0197 122.404 55.045 142.739 67.7997 142.804C80.1225 142.869 76.9522 122.184 76.9522 122.184C76.9522 122.184 68.0198 114.375 58.0197 122.404Z" fill="black"/>
<path d="M67.4579 126.313C72.6792 126.313 76.9119 124.563 76.9119 122.404C76.9119 120.246 72.6792 118.496 67.4579 118.496C62.2366 118.496 58.0039 120.246 58.0039 122.404C58.0039 124.563 62.2366 126.313 67.4579 126.313Z" fill="#080163"/>
<path opacity="0.7" d="M67.4579 126.313C72.6792 126.313 76.9119 124.563 76.9119 122.404C76.9119 120.246 72.6792 118.496 67.4579 118.496C62.2366 118.496 58.0039 120.246 58.0039 122.404C58.0039 124.563 62.2366 126.313 67.4579 126.313Z" fill="black"/>
<path d="M52.5753 92.7108C52.5753 92.7108 45.9901 91.1278 48.5003 85.6362C48.5166 85.6362 53.048 86.5338 52.5753 92.7108Z" fill="#938F05"/>
<path d="M56.5855 98.2432C56.5855 98.2432 55.6727 93.5513 59.332 91.6582C59.332 91.6664 62.2742 96.5786 56.5855 98.2432Z" fill="#938F05"/>
<path d="M60.6932 105.44C60.6932 105.44 59.6011 99.8262 63.9532 97.5659C63.9777 97.5659 67.4985 103.416 60.6932 105.44Z" fill="#938F05"/>
<path d="M63.872 113.265C63.872 113.265 62.7799 107.651 67.132 105.391C67.1564 105.391 70.6772 111.266 63.872 113.265Z" fill="#938F05"/>
<path d="M56.1864 98.3737C56.1864 98.3737 53.8637 94.204 49.8457 95.1098C49.8457 95.1179 50.7667 100.765 56.1864 98.3737Z" fill="#938F05"/>
<path d="M60.3095 105.611C60.3095 105.611 57.3348 100.716 52.5752 102.013C52.6159 102.013 53.977 108.729 60.3095 105.611Z" fill="#938F05"/>
<path d="M63.5044 113.339C63.5044 113.339 60.0162 108.818 55.4278 110.622C55.4196 110.613 57.5223 117.141 63.5044 113.339Z" fill="#938F05"/>
<path d="M65.9747 126.354H66.0644C66.3731 126.347 66.6816 126.371 66.9853 126.427C66.9888 126.395 66.9888 126.362 66.9853 126.329C65.5487 113.781 60.6305 101.886 52.788 91.9927C52.3805 91.4787 51.6552 92.2049 52.0627 92.7189C59.7316 102.405 64.547 114.043 65.9666 126.321L65.9747 126.354Z" fill="#42352F"/>
<path d="M81.5651 101.67C81.5651 101.67 87.213 100.316 85.0451 95.6075C85.0451 95.5994 81.1576 96.3746 81.5651 101.67Z" fill="#938F05"/>
<path d="M78.1259 106.411C78.1259 106.411 78.9409 102.388 75.7706 100.765C75.795 100.773 73.2441 104.983 78.1259 106.411Z" fill="#938F05"/>
<path d="M74.6047 112.588C74.6047 112.588 75.5419 107.774 71.7848 105.832C71.7848 105.864 68.7693 110.866 74.6047 112.588Z" fill="#938F05"/>
<path d="M71.8748 119.304C71.8748 119.304 72.812 114.489 69.0549 112.547C69.0549 112.547 66.0149 117.59 71.8748 119.304Z" fill="#938F05"/>
<path d="M78.4678 106.525C78.4678 106.525 80.4645 102.943 83.9038 103.735C83.9446 103.735 83.1296 108.582 78.4678 106.525Z" fill="#938F05"/>
<path d="M74.8984 112.735C74.8984 112.735 77.4494 108.549 81.5325 109.651C81.4999 109.651 80.3589 115.411 74.8984 112.735Z" fill="#938F05"/>
<path d="M72.1846 119.361C72.1846 119.361 75.1838 115.485 79.1121 117.027C79.1202 117.027 77.3191 122.625 72.1846 119.361Z" fill="#938F05"/>
<path d="M81.3861 101.066C75.5611 108.408 71.6011 117.054 69.8457 126.264C70.1473 126.215 70.4488 126.174 70.7585 126.142C72.4973 117.198 76.3543 108.803 82.0055 101.662C82.3152 101.254 81.7366 100.626 81.3861 101.066Z" fill="#42352F"/>
<path d="M106.439 69.4635C106.965 69.1244 107.578 68.9441 108.204 68.9441C108.829 68.9441 109.442 69.1244 109.968 69.4635C111.924 70.8996 111.932 74.8327 109.968 78.2679C109.165 79.7925 107.944 81.0552 106.447 81.9072C105.921 82.2463 105.309 82.4266 104.683 82.4266C104.057 82.4266 103.444 82.2463 102.918 81.9072C100.962 80.4711 100.954 76.5381 102.918 73.1028C103.721 71.5782 104.943 70.3155 106.439 69.4635Z" fill="#080163"/>
<path d="M106.373 48.4112C111.997 45.5226 117.628 45.3105 121.924 48.4683C122.543 48.9253 122.551 50.1819 121.924 51.2753C121.666 51.7605 121.276 52.1624 120.799 52.434C120.631 52.5416 120.436 52.5987 120.236 52.5987C120.037 52.5987 119.842 52.5416 119.674 52.434C115.998 49.7413 111.182 49.9208 106.373 52.385C101.565 54.8493 96.7645 59.6065 93.1214 66.0527C92.8639 66.5379 92.4738 66.9398 91.9967 67.2114C91.8288 67.319 91.6337 67.3762 91.4344 67.3762C91.2351 67.3762 91.0399 67.319 90.872 67.2114C90.2445 66.7545 90.2445 65.4978 90.872 64.4044C95.1345 56.8566 100.75 51.2998 106.373 48.4112Z" fill="#080163"/>
<path d="M106.341 37.5342C114.092 33.5522 121.826 33.3319 127.898 37.7627C128.901 38.5052 128.183 41.0266 126.782 41.7365C126.614 41.845 126.419 41.9028 126.219 41.9028C126.02 41.9028 125.824 41.845 125.657 41.7365C120.229 37.7627 113.285 37.9422 106.349 41.508C99.4138 45.0739 92.4945 52.0015 87.0992 61.524C86.8427 62.01 86.4524 62.4122 85.9745 62.6827C85.8054 62.791 85.6088 62.8485 85.4081 62.8485C85.2073 62.8485 85.0108 62.791 84.8416 62.6827C84.2222 62.2258 84.2141 60.9692 84.8416 59.8757C90.8482 49.2435 98.6151 41.508 106.341 37.5342Z" fill="#080163"/>
<path d="M106.406 58.5865C109.943 56.775 113.488 56.6363 116.186 58.5865C117.189 59.3209 116.471 61.8504 115.07 62.5522C114.901 62.6588 114.706 62.7154 114.507 62.7154C114.308 62.7154 114.113 62.6588 113.945 62.5522C111.867 61.0263 109.136 61.1242 106.414 62.5522C103.226 64.3645 100.622 67.0512 98.9081 70.2958C98.656 70.7796 98.2716 71.1816 97.7997 71.4545C97.6306 71.5628 97.434 71.6204 97.2333 71.6204C97.0325 71.6204 96.836 71.5628 96.6668 71.4545C96.0474 70.9894 96.0393 69.7328 96.6668 68.6476C99.3319 63.8986 102.869 60.398 106.406 58.5865Z" fill="#080163"/>
<path d="M116.39 152.946C127.491 146.704 140.702 139.801 151.794 133.559L160.832 128.475C161.843 127.904 162.984 127.039 164.092 126.525C164.454 126.623 164.796 126.784 165.103 126.998C166.244 127.814 167.597 128.394 168.811 129.071L179.667 135.142C185.095 138.177 193.065 141.825 198.493 144.86C199.634 144.86 198.224 144.158 199.357 144.044L199.284 143.987L183.065 134.913L171.15 128.247C169.39 127.259 166.953 125.187 164.956 124.779C163.815 124.542 163.375 124.958 162.324 125.546L155.086 129.626L131.729 142.771L115.477 151.886C115.289 151.983 115.146 152.15 115.078 152.351C116.219 152.375 115.249 153.004 116.39 152.946Z" fill="#D8D8D8"/>
<path d="M162.308 177.418C151.981 170.286 140.792 164.574 130.278 157.736C129.284 157.092 128.363 158.683 129.349 159.319C139.862 166.157 151.052 171.869 161.378 179.001C162.348 179.67 163.269 178.079 162.308 177.418Z" fill="#D8D8D8"/>
<path d="M182.332 165.708C171.419 159.956 161.085 153.208 150.481 146.941C150.274 146.843 150.037 146.827 149.818 146.895C149.599 146.963 149.413 147.111 149.297 147.309C149.181 147.507 149.142 147.741 149.19 147.966C149.237 148.191 149.366 148.39 149.552 148.524C160.147 154.823 170.49 161.58 181.403 167.291C182.446 167.838 183.375 166.255 182.332 165.708Z" fill="#D8D8D8"/>
<path d="M153.97 178.34L152.161 177.352C151.937 177.231 151.743 177.062 151.591 176.858C151.439 176.653 151.333 176.418 151.281 176.169C150.955 174.578 150.759 171.118 154.638 169.641L156.546 170.808" fill="#3695C9"/>
<path d="M158.59 175.679C159.864 173.47 159.857 171.079 158.575 170.337C157.292 169.596 155.22 170.786 153.946 172.995C152.672 175.204 152.679 177.595 153.962 178.337C155.244 179.078 157.317 177.888 158.59 175.679Z" fill="#1174B5"/>
<path d="M158.665 171.592V169.437L156.048 168.083L152.699 169.405L152.145 171.371L153.62 170.115L155.405 171.192V173.191L158.665 171.592Z" fill="#747E80"/>
<path d="M158.664 171.592C158.664 171.592 158.265 175.427 156.855 175.672C155.445 175.916 155.168 172.963 155.404 172.408" fill="#747E80"/>
<path d="M122.144 200.086L120.335 199.098C120.111 198.977 119.917 198.808 119.765 198.603C119.613 198.399 119.507 198.164 119.454 197.915C119.128 196.324 118.933 192.864 122.812 191.387L124.719 192.554" fill="#3695C9"/>
<path d="M127.562 196.937C128.836 194.718 128.824 192.318 127.536 191.576C126.247 190.835 124.17 192.033 122.896 194.252C121.622 196.471 121.634 198.871 122.923 199.613C124.211 200.354 126.288 199.156 127.562 196.937Z" fill="#1174B5"/>
<path d="M126.846 193.346V191.192L124.23 189.837L120.88 191.159L120.326 193.125L121.801 191.869L123.586 192.946V194.945L126.846 193.346Z" fill="#747E80"/>
<path d="M126.847 193.346C126.847 193.346 126.448 197.181 125.038 197.426C123.628 197.67 123.351 194.717 123.587 194.162" fill="#747E80"/>
<path d="M150.278 217.221L148.468 216.234C148.245 216.112 148.051 215.943 147.899 215.739C147.747 215.535 147.641 215.3 147.588 215.051C147.262 213.46 147.067 210 150.946 208.523L152.853 209.69" fill="#3695C9"/>
<path d="M155.761 213.956C157.035 211.737 157.023 209.337 155.735 208.596C154.446 207.855 152.369 209.053 151.096 211.272C149.822 213.491 149.833 215.891 151.122 216.632C152.41 217.373 154.487 216.175 155.761 213.956Z" fill="#1174B5"/>
<path d="M154.972 210.481V208.327L152.356 206.973L149.006 208.294L148.452 210.253L149.927 209.004L151.712 210.073V212.081L154.972 210.481Z" fill="#747E80"/>
<path d="M154.972 210.481C154.972 210.481 154.573 214.316 153.163 214.561C151.753 214.806 151.476 211.852 151.712 211.297" fill="#747E80"/>
<path d="M187.621 197.679L185.82 196.691C185.597 196.569 185.402 196.4 185.25 196.196C185.098 195.992 184.992 195.757 184.94 195.508C184.614 193.917 184.418 190.457 188.298 188.98L190.205 190.147" fill="#3695C9"/>
<path d="M193.026 194.268C194.3 192.049 194.288 189.649 192.999 188.908C191.711 188.166 189.634 189.364 188.36 191.583C187.086 193.802 187.098 196.202 188.386 196.944C189.675 197.685 191.752 196.487 193.026 194.268Z" fill="#1174B5"/>
<path d="M192.316 190.939V188.784L189.7 187.43L186.35 188.752L185.796 190.71L187.271 189.462L189.056 190.531V192.538L192.316 190.939Z" fill="#747E80"/>
<path d="M192.34 190.939C192.34 190.939 191.941 194.774 190.531 195.018C189.121 195.263 188.844 192.309 189.08 191.755" fill="#747E80"/>
<path d="M195.413 160.274C184.378 154.015 173.489 147.3 162.234 141.449C159.585 140.07 156.912 142.779 154.5 144.134L132.91 156.268L117.425 164.982C117.239 165.117 117.11 165.316 117.063 165.54C117.015 165.765 117.054 165.999 117.17 166.197C117.286 166.395 117.472 166.543 117.691 166.611C117.91 166.679 118.147 166.663 118.354 166.565L151.859 147.724L159.357 143.506L160.987 142.584C161.403 142.347 159.936 142.069 160.759 142.706C162.625 144.158 165.103 145.154 167.157 146.337L177.752 152.343L194.5 161.841C194.708 161.938 194.944 161.954 195.163 161.886C195.382 161.818 195.568 161.671 195.684 161.473C195.801 161.275 195.839 161.04 195.792 160.816C195.744 160.591 195.615 160.392 195.429 160.258L195.413 160.274Z" fill="#D8D8D8"/>
<path d="M170.392 100.438L176.251 96.9376C177.013 96.3725 177.832 95.891 178.696 95.5015C177.979 95.7218 177.694 95.2485 178.395 95.787C181.582 98.235 185.502 100.063 188.933 102.135L211.606 115.795V114.212C209.014 115.672 204.426 116.978 203.35 119.826C201.932 123.596 201.549 128.149 200.701 132.066L191.598 174.137C190.718 178.217 189.34 182.469 188.9 186.614C188.762 187.911 189.454 186.85 188.411 187.299C186.512 188.115 184.679 189.241 182.853 190.204L163.815 200.126C159.544 202.354 155.282 205.022 150.832 206.899C151.06 206.801 151.647 207.462 150.881 206.622C150.237 205.92 148.786 205.373 147.979 204.884L138.395 199.172L123.154 190.057V191.64L141.614 178.625L152.739 170.784C153.847 169.968 155.282 169.323 155.909 168.132C156.724 166.5 156.838 163.872 157.221 162.102L159.886 149.862L166.61 119.059L170.791 99.8914C171.044 98.7409 169.275 98.2595 169.022 99.4018L159.161 144.575C157.588 151.788 155.705 159.009 154.426 166.288C154.371 166.793 154.262 167.291 154.1 167.773C154.515 166.826 153.904 167.699 153.163 168.222L143.293 175.223L122.25 190.041C122.115 190.124 122.003 190.241 121.926 190.379C121.849 190.518 121.809 190.674 121.809 190.832C121.809 190.991 121.849 191.147 121.926 191.286C122.003 191.424 122.115 191.541 122.25 191.624L135.045 199.278L144.678 205.039C146.357 206.042 148.403 207.821 150.286 208.392C152.633 209.102 156.039 206.263 158.126 205.177L177.523 195.059L185.82 190.726C186.977 190.123 189.08 189.511 189.984 188.556C191.337 187.136 191.37 183.831 191.769 181.987L200.571 141.294L204.646 122.625C204.768 122.07 205.396 119.459 205.135 119.81C204.719 120.373 205.95 119.483 206.227 119.344C207.042 118.912 207.857 118.406 208.721 117.941L212.552 115.787C212.686 115.703 212.798 115.587 212.875 115.448C212.952 115.31 212.993 115.154 212.993 114.995C212.993 114.837 212.952 114.681 212.875 114.542C212.798 114.404 212.686 114.287 212.552 114.204L178.729 93.8695C178.588 93.787 178.428 93.7436 178.265 93.7436C178.101 93.7436 177.941 93.787 177.8 93.8695L169.463 98.8551C169.276 98.9894 169.147 99.1884 169.1 99.4132C169.053 99.6379 169.091 99.8722 169.207 100.07C169.323 100.268 169.509 100.416 169.728 100.484C169.947 100.552 170.184 100.536 170.392 100.438Z" fill="#D8D8D8"/>
<path d="M189.716 121.776L181.566 154.513C181.524 154.74 181.569 154.974 181.691 155.17C181.813 155.365 182.004 155.508 182.226 155.569C182.448 155.631 182.685 155.607 182.891 155.502C183.096 155.397 183.254 155.219 183.335 155.003L191.485 122.266C191.526 122.039 191.482 121.805 191.36 121.609C191.237 121.414 191.046 121.271 190.824 121.209C190.602 121.148 190.365 121.172 190.16 121.277C189.955 121.382 189.797 121.56 189.716 121.776Z" fill="#D8D8D8"/>
<path d="M178.119 115.216L170.107 147.235C170.065 147.461 170.11 147.696 170.232 147.891C170.354 148.087 170.545 148.229 170.767 148.291C170.989 148.352 171.226 148.328 171.432 148.223C171.637 148.118 171.795 147.94 171.876 147.724L179.887 115.705C179.929 115.478 179.884 115.244 179.762 115.049C179.64 114.853 179.449 114.71 179.227 114.649C179.005 114.588 178.768 114.612 178.563 114.717C178.358 114.821 178.199 114.999 178.119 115.216Z" fill="#D8D8D8"/>
<path d="M173.668 171.143C163.073 164.615 152.478 158.014 141.68 151.853C141.472 151.756 141.235 151.739 141.016 151.807C140.797 151.876 140.611 152.023 140.495 152.221C140.379 152.419 140.341 152.653 140.388 152.878C140.435 153.103 140.564 153.302 140.751 153.436C151.59 159.605 162.185 166.198 172.78 172.775C173.791 173.395 174.712 171.812 173.709 171.192L173.668 171.143Z" fill="#D8D8D8"/>
<path d="M202.674 127.814L184.793 117.68L173.04 111.021C171.785 110.312 169.495 108.304 167.979 108.239C166.887 108.19 165.396 109.463 164.507 109.961L155.273 115.118L130.057 129.201L113.505 138.447C112.478 139.026 113.399 140.609 114.434 140.03L152.095 118.985C157.376 116.04 162.91 113.331 168.02 110.091C168.697 109.667 167.009 109.569 167.776 110.14C168.717 110.743 169.694 111.288 170.701 111.772L181.411 117.843L201.786 129.365C201.993 129.462 202.23 129.478 202.449 129.41C202.668 129.342 202.854 129.195 202.97 128.997C203.086 128.799 203.124 128.564 203.077 128.34C203.03 128.115 202.901 127.916 202.715 127.782L202.674 127.814Z" fill="#D8D8D8"/>
<path d="M124.385 146.223L128.933 172.922C129.128 174.08 130.897 173.591 130.701 172.432L126.154 145.733C125.958 144.575 124.19 145.064 124.385 146.223Z" fill="#D8D8D8"/>
<path d="M127.873 130.964V159.311C127.895 159.54 128.001 159.752 128.17 159.906C128.34 160.061 128.561 160.147 128.79 160.147C129.019 160.147 129.24 160.061 129.41 159.906C129.579 159.752 129.685 159.54 129.707 159.311V130.964C129.685 130.735 129.579 130.523 129.41 130.369C129.24 130.214 129.019 130.129 128.79 130.129C128.561 130.129 128.34 130.214 128.17 130.369C128.001 130.523 127.895 130.735 127.873 130.964Z" fill="#D8D8D8"/>
<path d="M139.993 124.191L139.251 153.24C139.273 153.469 139.378 153.681 139.548 153.836C139.718 153.99 139.939 154.076 140.168 154.076C140.397 154.076 140.618 153.99 140.788 153.836C140.957 153.681 141.063 153.469 141.085 153.24L141.826 124.191C141.805 123.963 141.699 123.751 141.529 123.596C141.36 123.442 141.139 123.356 140.91 123.356C140.68 123.356 140.459 123.442 140.29 123.596C140.12 123.751 140.014 123.963 139.993 124.191Z" fill="#D8D8D8"/>
<path d="M151.704 117.655L148.151 148.238C148.012 149.413 149.846 149.397 149.985 148.238L153.538 117.655C153.677 116.48 151.843 116.497 151.704 117.655Z" fill="#D8D8D8"/>
<path d="M209.227 112.433C209.227 112.433 208.485 111.992 208.061 112.433C207.638 112.874 208.061 113.518 208.061 113.518L208.705 113.902C208.529 114.097 208.294 114.228 208.036 114.275C207.779 114.322 207.512 114.283 207.279 114.163C206.277 113.82 180.938 98.6593 180.938 98.6593C180.938 98.6593 180.237 97.7699 180.62 97.0274C180.805 96.5527 181.152 96.1595 181.601 95.9187C182.049 95.6778 182.568 95.6051 183.065 95.7136C184.386 95.9992 209.227 110.956 209.227 110.956C209.227 110.956 209.928 112.009 209.227 112.433Z" fill="#F14A24"/>
<path d="M173.237 96.3174C182.096 96.9294 181.631 111.274 182.202 117.231C182.348 118.724 180.05 119.23 179.895 117.721C179.398 112.759 179.724 106.044 176.978 101.678C176.163 100.324 175.111 99.0102 173.375 98.8878C172.842 98.8692 172.31 98.961 171.814 99.1576C171.317 99.3542 170.867 99.6512 170.49 100.03C169.675 100.732 169.3 103.506 169.17 104.33C168.71 107.405 168.658 110.528 169.015 113.616C169.17 115.109 166.872 115.615 166.709 114.106C166.26 109.406 165.339 95.7707 173.237 96.3174Z" fill="#F15A24"/>
<path d="M159.984 105.946L157.319 110.393L151.989 111.503L155.983 125.285L167.311 117.949" fill="#080163"/>
<path opacity="0.28" d="M159.984 105.946L157.319 110.393L151.989 111.503L155.983 125.285L167.311 117.949" fill="#606060"/>
<path d="M187.295 121.066L159.984 105.946L160.873 128.402L181.745 130.401L187.295 121.066Z" fill="#080163"/>
<path opacity="0.81" d="M187.295 121.066L159.984 105.946L160.873 128.402L181.745 130.401L187.295 121.066Z" fill="#606060"/>
<path d="M177.523 124.395L173.31 166.859L147.768 151.518L151.989 111.503L177.523 124.395Z" fill="#080163"/>
<path d="M177.523 124.395L180.416 121.066H187.295V158.422L182.772 161.612L173.31 166.859L177.523 124.395Z" fill="#080163"/>
<path opacity="0.28" d="M177.523 124.395L180.416 121.066H187.295V158.422L182.772 161.612L173.31 166.859L177.523 124.395Z" fill="#606060"/>
<path d="M161.826 103.416C170.71 103.498 171.101 117.851 172.055 123.751C172.291 125.236 170.025 125.872 169.781 124.379C168.966 119.483 168.917 112.735 165.909 108.541C164.679 106.819 162.511 105.375 160.392 106.501C158.485 107.513 158.46 109.765 158.273 111.65C157.997 114.746 158.131 117.866 158.672 120.927C158.917 122.413 156.651 123.049 156.398 121.556C155.665 116.905 153.921 103.343 161.826 103.416Z" fill="#F15A24"/>
<path d="M152.054 126.174C158.705 126.631 158.362 137.41 158.811 141.874C158.925 143 157.181 143.375 157.083 142.241C156.708 138.52 156.953 133.469 154.891 130.197C154.255 129.185 153.489 128.19 152.185 128.1C151.787 128.081 151.389 128.143 151.016 128.283C150.644 128.424 150.303 128.639 150.017 128.916C149.43 129.446 149.12 131.527 149.023 132.18C148.678 134.487 148.64 136.831 148.908 139.148C149.031 140.274 147.278 140.65 147.181 139.515C146.798 136.007 146.121 125.766 152.054 126.174Z" fill="#F15A24"/>
<path d="M142.103 133.404L140.098 136.741L136.097 137.582L139.096 147.928L147.604 142.42" fill="#080163"/>
<path opacity="0.28" d="M142.103 133.404L140.098 136.741L136.097 137.582L139.096 147.928L147.604 142.42" fill="#606060"/>
<path d="M162.609 144.754L142.104 133.404L142.772 150.262L158.444 151.763L162.609 144.754Z" fill="#080163"/>
<path opacity="0.81" d="M162.609 144.754L142.104 133.404L142.772 150.262L158.444 151.763L162.609 144.754Z" fill="#606060"/>
<path d="M155.274 147.259L152.104 179.148L132.927 167.626L136.097 137.582L155.274 147.259Z" fill="#080163"/>
<path d="M155.274 147.259L157.442 144.754H162.609V172.807L159.21 175.206L152.104 179.148L155.274 147.259Z" fill="#080163"/>
<path opacity="0.28" d="M155.274 147.259L157.442 144.754H162.609V172.807L159.21 175.206L152.104 179.148L155.274 147.259Z" fill="#606060"/>
<path d="M143.489 131.502C150.155 131.568 150.457 142.339 151.166 146.778C151.345 147.896 149.642 148.41 149.463 147.251C148.868 143.555 148.811 138.504 146.553 135.354C145.624 134.065 144.002 132.979 142.405 133.82C140.978 134.579 140.954 136.268 140.775 137.688C140.568 140.014 140.669 142.357 141.076 144.656C141.264 145.774 139.56 146.288 139.373 145.129C138.835 141.629 137.547 131.454 143.489 131.502Z" fill="#F15A24"/>
<path d="M201.753 127.814L164.043 149.226C158.708 152.256 153.372 155.286 148.037 158.316C147.222 158.764 148.901 158.724 148.306 158.316C147.401 157.744 146.448 157.222 145.527 156.684L134.663 150.303L114.426 138.455C114.268 138.369 114.089 138.332 113.91 138.346C113.731 138.36 113.56 138.426 113.418 138.536C113.276 138.646 113.168 138.794 113.109 138.964C113.049 139.133 113.039 139.316 113.081 139.491C114.312 147.879 115.07 156.496 116.798 164.786C117.214 166.794 118.045 166.941 119.854 167.985L132.666 175.386L146.244 183.228C147.874 184.15 150.441 186.491 152.356 186.222C154.141 185.986 156.79 183.709 158.314 182.852L171.786 175.223L195.421 161.841C195.607 161.706 195.736 161.507 195.784 161.283C195.831 161.058 195.793 160.824 195.676 160.626C195.56 160.428 195.374 160.28 195.155 160.212C194.936 160.144 194.7 160.16 194.492 160.258L175.747 170.865C168.11 175.19 159.838 179.025 152.576 183.986C151.476 184.737 151.346 184.28 152.275 184.598C151.301 184.139 150.371 183.593 149.496 182.966L137.075 175.794L124.035 168.254C122.609 167.438 121.199 166.533 119.74 165.806C119.342 165.627 118.962 165.409 118.607 165.154C117.931 164.591 118.966 165.97 118.689 165.26C118.086 163.693 118.126 161.457 117.874 159.801L116.651 151.47L114.817 139.001L113.473 140.038L131.256 150.482L142.943 157.345C144.182 158.071 146.562 160.217 148.102 160.225C149.219 160.225 150.857 158.797 151.761 158.283L160.555 153.306L186.285 138.691L202.658 129.397C202.844 129.263 202.974 129.064 203.021 128.839C203.068 128.615 203.03 128.38 202.914 128.182C202.797 127.984 202.612 127.837 202.392 127.769C202.173 127.701 201.937 127.717 201.729 127.814H201.753Z" fill="#D8D8D8"/>
<path d="M198.388 143.963C187.116 150.131 173.938 157.41 162.691 163.546C158.762 165.7 154.5 168.899 150.229 170.466C149.939 170.368 149.664 170.228 149.414 170.049C148.355 169.348 147.14 168.793 146.024 168.181L135.29 162.298C129.74 159.238 121.941 155.264 116.39 152.204C115.241 152.261 116.342 153.208 115.192 153.175C115.274 153.302 115.386 153.405 115.518 153.477L131.875 162.51L143.44 168.923C145.07 169.837 147.621 171.983 149.52 172.277C150.588 172.448 151.093 172.008 152.071 171.461L159.944 167.153L183.269 154.374L199.284 145.603C199.415 145.528 199.525 145.42 199.602 145.29C199.679 145.159 199.721 145.011 199.724 144.86C198.673 144.958 199.472 143.922 198.388 143.963Z" fill="#D8D8D8"/>
<path d="M135.909 152.898L139.943 179.303C140.123 180.47 141.891 179.972 141.712 178.813L137.678 152.375C137.498 151.208 135.73 151.706 135.909 152.865V152.898Z" fill="#D8D8D8"/>
<path d="M147.254 159.556L151.019 185.667C151.19 186.834 152.951 186.336 152.788 185.178L149.022 159.066C148.851 157.899 147.091 158.397 147.254 159.556Z" fill="#D8D8D8"/>
<path d="M162.283 151.233C162.283 160.421 162.723 169.592 162.748 178.78C162.769 179.009 162.875 179.221 163.045 179.376C163.214 179.53 163.435 179.616 163.665 179.616C163.894 179.616 164.115 179.53 164.284 179.376C164.454 179.221 164.56 179.009 164.582 178.78C164.582 169.592 164.141 160.421 164.117 151.233C164.095 151.004 163.99 150.792 163.82 150.638C163.65 150.483 163.429 150.398 163.2 150.398C162.971 150.398 162.75 150.483 162.58 150.638C162.411 150.792 162.305 151.004 162.283 151.233Z" fill="#D8D8D8"/>
<path d="M173.521 144.379C173.402 153.501 173.402 162.621 173.521 171.739C173.543 171.967 173.649 172.179 173.818 172.334C173.988 172.488 174.209 172.574 174.438 172.574C174.667 172.574 174.888 172.488 175.058 172.334C175.228 172.179 175.333 171.967 175.355 171.739C175.23 162.616 175.23 153.496 175.355 144.379C175.333 144.15 175.228 143.938 175.058 143.783C174.888 143.629 174.667 143.543 174.438 143.543C174.209 143.543 173.988 143.629 173.818 143.783C173.649 143.938 173.543 144.15 173.521 144.379Z" fill="#D8D8D8"/>
<path d="M186.497 136.953L182.789 166.459C182.642 167.626 184.476 167.618 184.622 166.459L188.331 136.953C188.477 135.786 186.644 135.795 186.497 136.953Z" fill="#D8D8D8"/>
<path d="M215.674 70.459C215.674 69.9694 212.902 66.5831 214.59 64.8288C216.277 63.0744 218.176 63.0744 220.042 63.7027C221.573 64.1636 222.947 65.038 224.014 66.2299C225.081 67.4219 225.799 68.8852 226.089 70.459C226.711 72.9607 227.144 75.5055 227.385 78.0721L219.732 75.5018" fill="#FF9739"/>
<path d="M223.497 93.0127C223.497 93.0127 218.297 90.8422 218.737 84.2083C219.082 80.1263 220.898 76.3093 223.847 73.47L227.385 78.0721" fill="#FF9739"/>
<path d="M226.448 72.042C226.448 72.042 230.768 85.2445 230.213 89.096C229.659 92.9474 223.506 93.0127 223.506 93.0127" fill="#FF9739"/>
<path d="M236.896 124.575L227.385 119.899C227.305 113.381 226.323 106.906 224.467 100.658L216.464 99.1815C216.059 103.521 215.928 107.881 216.072 112.237C216.116 115.5 216.602 118.742 217.515 121.874C218.33 124.322 219.381 127.121 221.81 128.402C223.921 129.512 226.602 129.903 228.892 130.54C229.626 130.744 236.912 132.425 236.912 132.767L236.896 124.575Z" fill="#FFC700"/>
<path d="M210.164 82.5274C208.744 85.1973 207.109 87.7463 205.274 90.1486C203.986 91.6419 192.723 96.8397 192.723 96.8397C192.723 96.8397 186.496 96.0808 185.648 98.2269C184.801 100.373 184.336 101.018 186.463 102.144C188.591 103.27 190.538 100.226 192.576 100.03C194.613 99.8343 207.124 97.2232 212.894 88.4922C213.709 87.2764 214.524 83.1475 215.575 81.8338C215.416 81.1789 215.329 80.5086 215.314 79.8347C213.073 80.3895 212.364 81.7849 210.164 82.5274Z" fill="#FFB288"/>
<path d="M226.342 78.831C225.848 78.2676 225.302 77.7513 224.712 77.2888C221.68 75.8853 216.79 74.7021 215.975 74.7837C215.16 74.8653 212.3 76.1627 211.729 78.2353C211.159 80.3079 210.841 84.6734 210.841 89.659C210.841 94.9874 209.211 102.372 209.211 102.372C209.211 102.372 214.419 105.922 219.203 105.448C222.585 105.114 225.038 104.91 226.008 103.816C226.09 96.3011 225.755 86.0769 226.342 78.831Z" fill="#AA2B2B"/>
<path d="M220.726 85.3915C219.409 88.6725 217.71 91.7865 215.665 94.6692C214.646 96.2277 203.79 103.784 203.79 103.784C203.79 103.784 199.153 102.886 198.623 104.999C198.094 107.113 197.458 108.965 199.552 109.748C201.647 110.532 203.383 106.387 205.257 105.946C207.132 105.505 217.751 100.765 222.56 94.7671C223.913 92.9807 224.955 90.9777 225.641 88.8431C223.098 88.1169 222.837 86.9255 220.726 85.3915Z" fill="#FFB288"/>
<path d="M216.505 90.2057C216.505 90.2057 220.702 78.1455 222.096 77.558C222.578 77.345 223.102 77.2405 223.629 77.2517C224.156 77.2629 224.675 77.3896 225.148 77.6229C225.621 77.8563 226.037 78.1906 226.367 78.6023C226.698 79.014 226.934 79.4931 227.059 80.006C227.784 82.9272 225.071 92.2457 224.345 93.2738C223.62 94.302 216.505 90.2057 216.505 90.2057Z" fill="#AA2B2B"/>
<path d="M212.259 77.2888L205.73 85.473L211.509 91.7561L214.606 88.3861" fill="#AA2B2B"/>
<path d="M222.397 72.7356V77.1093C221.785 77.5484 221.051 77.7845 220.298 77.7845C219.546 77.7845 218.812 77.5484 218.2 77.1093L217.197 72.4092" fill="#E59770"/>
<path d="M216.399 67.1461C216.447 67.135 216.497 67.135 216.546 67.1461C217.371 67.4215 218.223 67.6048 219.088 67.6928C219.952 67.6928 220.816 67.6357 221.672 67.6928C222.242 67.6928 222.601 69.0718 222.593 70.7364C222.96 70.5161 223.408 70.4182 223.701 70.8344C223.828 71.0675 223.867 71.3387 223.81 71.5981C223.753 71.8575 223.605 72.0876 223.392 72.246C223.109 72.494 222.766 72.6628 222.397 72.7356C222.273 73.5854 221.883 74.3742 221.285 74.9896C220.686 75.6049 219.909 76.0155 219.064 76.1627C218.414 76.2705 217.747 76.1204 217.205 75.7441C216.663 75.3678 216.289 74.795 216.163 74.1472C215.669 72.3918 215.53 70.5552 215.755 68.7454L215.812 67.856C215.836 67.7214 215.889 67.5938 215.968 67.4823C216.047 67.3708 216.15 67.2783 216.269 67.2114C216.307 67.1801 216.351 67.1577 216.399 67.1461Z" fill="#FFB288"/>
<path d="M216.79 66.5096C216.79 66.5096 219.944 71.1199 222.348 70.7609C224.753 70.4019 222.096 66.8116 222.096 66.8116" fill="#FF9739"/>
</g>
<defs>
<linearGradient id="paint0_linear_1_2449" x1="139.34" y1="207.242" x2="188.382" y2="149.529" gradientUnits="userSpaceOnUse">
<stop stop-color="#4444A5"/>
<stop offset="1"/>
</linearGradient>
<linearGradient id="paint1_linear_1_2449" x1="210.042" y1="159.67" x2="253.306" y2="108.755" gradientUnits="userSpaceOnUse">
<stop stop-color="#4444A5"/>
<stop offset="1"/>
</linearGradient>
<linearGradient id="paint2_linear_1_2449" x1="33.5047" y1="155.296" x2="61.0934" y2="138.916" gradientUnits="userSpaceOnUse">
<stop stop-color="#4444A5"/>
<stop offset="1"/>
</linearGradient>
</defs>
</svg>
